<?xml version="1.0" standalone="no"?>
<!DOCTYPE svg PUBLIC "-//W3C//DTD SVG 20010904//EN"
 "http://www.w3.org/TR/2001/REC-SVG-20010904/DTD/svg10.dtd">
<svg version="1.0" xmlns="http://www.w3.org/2000/svg"
 width="150.000000pt" height="150.000000pt" viewBox="0 0 150.000000 150.000000"
 preserveAspectRatio="xMidYMid meet">
<metadata>
Created by potrace 1.14, written by Peter Selinger 2001-2017
</metadata>
<g transform="translate(0.000000,150.000000) scale(0.100000,-0.100000)"
fill="#000000" stroke="none">
<path d="M179 1347 c-18 -12 -39 -34 -46 -47 -18 -36 -18 -1064 0 -1100 7 -13
28 -35 46 -47 l34 -23 536 0 c514 0 537 1 568 20 64 39 63 25 63 600 0 575 1
561 -63 600 -31 19 -54 20 -568 20 l-536 0 -34 -23z m1109 -53 l22 -15 0 -529
0 -529 -22 -15 c-20 -14 -88 -16 -539 -16 -494 0 -518 1 -540 19 l-24 19 0
522 0 522 24 19 c22 18 46 19 540 19 451 0 519 -2 539 -16z"/>
<path d="M573 1134 c-20 -10 -40 -32 -53 -60 -31 -64 -20 -89 110 -252 l25
-32 37 25 c20 14 39 25 42 25 3 0 20 -16 38 -35 l33 -35 52 35 c29 20 55 39
57 44 3 4 -6 25 -20 45 -15 21 -22 41 -18 46 5 4 61 42 124 85 63 43 118 83
122 89 20 30 -25 36 -271 36 -204 0 -251 -3 -278 -16z"/>
<path d="M625 705 c-28 -20 -51 -39 -53 -44 -1 -4 12 -27 29 -50 17 -24 27
-47 22 -51 -4 -4 -63 -44 -130 -89 -68 -45 -123 -86 -123 -91 0 -25 51 -30
280 -30 280 0 295 3 330 76 29 58 19 84 -69 196 l-68 88 -37 -25 c-20 -14 -40
-25 -44 -25 -4 1 -20 19 -37 40 -16 21 -35 39 -40 40 -6 0 -33 -16 -60 -35z"/>
</g>
</svg>
