<svg width="8" height="14" viewBox="0 0 8 14" fill="none" xmlns="http://www.w3.org/2000/svg">
<path d="M0.635884 11.9163L0.635574 11.9161L0.628853 11.9249C0.400886 12.2261 0.426424 12.6538 0.704417 12.9263C1.00864 13.2246 1.50068 13.2246 1.80491 12.9263L7.29558 7.5436L7.29587 7.54389L7.30315 7.53562L7.36412 7.46638L7.36443 7.46666L7.37115 7.45778C7.59911 7.15658 7.57358 6.72893 7.29558 6.4564L1.80491 1.07368L1.80519 1.0734L1.79681 1.0663L1.72618 1.00653L1.72645 1.00622L1.71752 0.999727C1.4129 0.778148 0.981253 0.802291 0.704417 1.07368L0.704134 1.0734L0.696851 1.08167L0.635884 1.1509L0.635574 1.15063L0.628853 1.15951C0.400886 1.46071 0.426424 1.88836 0.704417 2.16088L0.704419 2.16089L5.64079 7L0.704419 11.8391L0.704136 11.8388L0.696851 11.8471L0.635884 11.9163Z" fill="#627083" stroke="#627083" stroke-width="0.3"/>
</svg>
