<svg width="32" height="32" viewBox="0 0 32 32" fill="none" xmlns="http://www.w3.org/2000/svg">
<path d="M16 29C19.4478 29 22.7544 27.6304 25.1924 25.1924C27.6304 22.7544 29 19.4478 29 16C29 12.5522 27.6304 9.24558 25.1924 6.80761C22.7544 4.36964 19.4478 3 16 3C15.7348 3 15.4804 3.10536 15.2929 3.29289C15.1054 3.48043 15 3.73478 15 4V7C15 7.26522 15.1054 7.51957 15.2929 7.70711C15.4804 7.89464 15.7348 8 16 8C16.2652 8 16.5196 7.89464 16.7071 7.70711C16.8946 7.51957 17 7.26522 17 7V5.0449C19.0817 5.23506 21.066 6.01442 22.7207 7.29169C24.3754 8.56896 25.6319 10.2913 26.3431 12.2569C27.0543 14.2225 27.1906 16.3501 26.7363 18.3904C26.2819 20.4307 25.2555 22.2994 23.7775 23.7775C22.2994 25.2555 20.4307 26.2819 18.3904 26.7363C16.3501 27.1906 14.2225 27.0543 12.2569 26.3431C10.2913 25.6319 8.56896 24.3754 7.29169 22.7207C6.01442 21.066 5.23506 19.0817 5.0449 17H7C7.26522 17 7.51957 16.8946 7.70711 16.7071C7.89464 16.5196 8 16.2652 8 16C8 15.7348 7.89464 15.4804 7.70711 15.2929C7.51957 15.1054 7.26522 15 7 15H4C3.73478 15 3.48043 15.1054 3.29289 15.2929C3.10536 15.4804 3 15.7348 3 16C3.00389 19.4466 4.37478 22.751 6.81191 25.1881C9.24904 27.6252 12.5534 28.9961 16 29Z" fill="white"/>
<path d="M14.0745 15.4887C14.0274 15.6552 14.0024 15.8271 14 16.0001C14 16.3956 14.1173 16.7823 14.3371 17.1112C14.5568 17.4401 14.8692 17.6965 15.2347 17.8478C15.6001 17.9992 16.0022 18.0388 16.3902 17.9617C16.7782 17.8845 17.1345 17.694 17.4142 17.4143C17.6939 17.1346 17.8844 16.7782 17.9616 16.3903C18.0388 16.0023 17.9992 15.6002 17.8478 15.2347C17.6964 14.8693 17.4401 14.5569 17.1112 14.3371C16.7823 14.1174 16.3956 14.0001 16 14.0001C15.827 14.0024 15.6551 14.0275 15.4886 14.0747L8.20702 6.79308C8.11477 6.69757 8.00443 6.62139 7.88242 6.56898C7.76042 6.51657 7.6292 6.48898 7.49642 6.48783C7.36364 6.48668 7.23196 6.51198 7.10907 6.56226C6.98617 6.61254 6.87452 6.68679 6.78062 6.78069C6.68673 6.87458 6.61248 6.98623 6.5622 7.10913C6.51192 7.23202 6.48662 7.3637 6.48777 7.49648C6.48892 7.62926 6.51651 7.76048 6.56892 7.88249C6.62133 8.00449 6.69751 8.11483 6.79302 8.20708L14.0745 15.4887Z" fill="white"/>
<path d="M21 16C21 16.2652 21.1054 16.5196 21.2929 16.7071C21.4804 16.8946 21.7348 17 22 17H24C24.2652 17 24.5196 16.8946 24.7071 16.7071C24.8946 16.5196 25 16.2652 25 16C25 15.7348 24.8946 15.4804 24.7071 15.2929C24.5196 15.1054 24.2652 15 24 15H22C21.7348 15 21.4804 15.1054 21.2929 15.2929C21.1054 15.4804 21 15.7348 21 16Z" fill="white"/>
<path d="M20.95 9.63554L19.5352 11.0498C19.4423 11.1427 19.3686 11.2529 19.3183 11.3743C19.268 11.4956 19.2421 11.6256 19.242 11.757C19.242 11.8883 19.2678 12.0184 19.318 12.1398C19.3682 12.2611 19.4419 12.3714 19.5347 12.4643C19.6276 12.5572 19.7378 12.631 19.8591 12.6813C19.9805 12.7316 20.1105 12.7575 20.2419 12.7575C20.3732 12.7576 20.5033 12.7318 20.6246 12.6815C20.746 12.6313 20.8563 12.5577 20.9492 12.4648L22.3643 11.0508C22.4572 10.958 22.531 10.8477 22.5813 10.7264C22.6316 10.605 22.6575 10.4749 22.6576 10.3435C22.6576 10.2122 22.6318 10.0821 22.5816 9.96067C22.5313 9.83928 22.4577 9.72897 22.3648 9.63604C22.2719 9.54311 22.1617 9.46938 22.0403 9.41906C21.919 9.36874 21.7889 9.34282 21.6575 9.34277C21.5261 9.34273 21.396 9.36856 21.2746 9.41879C21.1532 9.46902 21.0429 9.54267 20.95 9.63554Z" fill="white"/>
</svg>
