<svg width="32" height="32" viewBox="0 0 32 32" fill="none" xmlns="http://www.w3.org/2000/svg">
<path d="M24.0728 9.952L25.5806 6.7538C25.6366 6.63501 25.6686 6.50636 25.6749 6.37518C25.6812 6.244 25.6616 6.11287 25.6172 5.98928C25.5728 5.86568 25.5045 5.75204 25.4162 5.65484C25.3279 5.55765 25.2213 5.4788 25.1025 5.4228L21.9048 3.9149C21.7856 3.85538 21.6557 3.82029 21.5228 3.81167C21.3898 3.80305 21.2565 3.82108 21.1306 3.8647C21.0047 3.90832 20.8889 3.97665 20.7897 4.06569C20.6906 4.15472 20.6103 4.26266 20.5535 4.38316C20.4967 4.50366 20.4646 4.63431 20.4589 4.76741C20.4533 4.90051 20.4744 5.0334 20.5208 5.15826C20.5673 5.28312 20.6382 5.39744 20.7295 5.49451C20.8207 5.59157 20.9304 5.66943 21.0522 5.7235L22.4033 6.361L5.62838 13.071C5.38207 13.1696 5.18501 13.3619 5.08053 13.6058C5.0288 13.7265 5.00135 13.8563 4.99977 13.9876C4.99818 14.119 5.02248 14.2493 5.07128 14.3713C5.12008 14.4933 5.19242 14.6044 5.28418 14.6984C5.37593 14.7924 5.48531 14.8674 5.60605 14.9191C5.8499 15.0236 6.12527 15.027 6.37158 14.9284L22.57 8.4489L22.2638 9.0989C22.2078 9.21768 22.1757 9.34634 22.1694 9.47753C22.1631 9.60871 22.1827 9.73985 22.2271 9.86346C22.2715 9.98706 22.3398 10.1007 22.4281 10.1979C22.5164 10.2951 22.623 10.374 22.7418 10.43C22.8748 10.4932 23.0203 10.5259 23.1676 10.5257C23.3573 10.5258 23.5432 10.4719 23.7035 10.3703C23.8638 10.2688 23.9919 10.1237 24.0728 9.952Z" fill="#C0C6CE"/>
<path d="M9 18H8C7.20462 18.0009 6.44206 18.3172 5.87964 18.8796C5.31722 19.4421 5.00087 20.2046 5 21V27C5.00087 27.7954 5.31722 28.5579 5.87964 29.1204C6.44206 29.6828 7.20462 29.9991 8 30H9C9.79538 29.9991 10.5579 29.6828 11.1204 29.1204C11.6828 28.5579 11.9991 27.7954 12 27V21C11.9991 20.2046 11.6828 19.4421 11.1204 18.8796C10.5579 18.3172 9.79538 18.0009 9 18ZM10 27C9.99976 27.2651 9.89433 27.5194 9.70684 27.7068C9.51936 27.8943 9.26514 27.9998 9 28H8C7.73486 27.9998 7.48064 27.8943 7.29316 27.7068C7.10567 27.5194 7.00024 27.2651 7 27V21C7.00024 20.7349 7.10567 20.4806 7.29316 20.2932C7.48064 20.1057 7.73486 20.0002 8 20H9C9.26514 20.0002 9.51936 20.1057 9.70684 20.2932C9.89433 20.4806 9.99976 20.7349 10 21V27Z" fill="#C0C6CE"/>
<path d="M18 15H17C16.2046 15.0009 15.4421 15.3172 14.8796 15.8796C14.3172 16.4421 14.0009 17.2046 14 18V27C14.0009 27.7954 14.3172 28.5579 14.8796 29.1204C15.4421 29.6828 16.2046 29.9991 17 30H18C18.7954 29.9991 19.5579 29.6828 20.1204 29.1204C20.6828 28.5579 20.9991 27.7954 21 27V18C20.9991 17.2046 20.6828 16.4421 20.1204 15.8796C19.5579 15.3172 18.7954 15.0009 18 15ZM19 27C18.9998 27.2651 18.8943 27.5194 18.7068 27.7068C18.5194 27.8943 18.2651 27.9998 18 28H17C16.7349 27.9998 16.4806 27.8943 16.2932 27.7068C16.1057 27.5194 16.0002 27.2651 16 27V18C16.0002 17.7349 16.1057 17.4806 16.2932 17.2932C16.4806 17.1057 16.7349 17.0002 17 17H18C18.2651 17.0002 18.5194 17.1057 18.7068 17.2932C18.8943 17.4806 18.9998 17.7349 19 18V27Z" fill="#C0C6CE"/>
<path d="M27 12H26C25.2046 12.0009 24.4421 12.3172 23.8796 12.8796C23.3172 13.4421 23.0009 14.2046 23 15V27C23.0009 27.7954 23.3172 28.5579 23.8796 29.1204C24.4421 29.6828 25.2046 29.9991 26 30H27C27.7954 29.9991 28.5579 29.6828 29.1204 29.1204C29.6828 28.5579 29.9991 27.7954 30 27V15C29.9991 14.2046 29.6828 13.4421 29.1204 12.8796C28.5579 12.3172 27.7954 12.0009 27 12ZM28 27C27.9998 27.2651 27.8943 27.5194 27.7068 27.7068C27.5194 27.8943 27.2651 27.9998 27 28H26C25.7349 27.9998 25.4806 27.8943 25.2932 27.7068C25.1057 27.5194 25.0002 27.2651 25 27V15C25.0002 14.7349 25.1057 14.4806 25.2932 14.2932C25.4806 14.1057 25.7349 14.0002 26 14H27C27.2651 14.0002 27.5194 14.1057 27.7068 14.2932C27.8943 14.4806 27.9998 14.7349 28 15V27Z" fill="#C0C6CE"/>
</svg>
