<svg width="18" height="18" viewBox="0 0 18 18" fill="none" xmlns="http://www.w3.org/2000/svg">
<g clip-path="url(#clip0)">
<path d="M14.3932 7.21369H6.30344V4.607C6.30344 3.25871 7.2023 2.0902 8.4607 1.82054C10.1685 1.55088 11.6966 2.80928 11.6966 4.51712C11.6966 5.05643 12.146 5.41598 12.5955 5.41598C13.0449 5.41598 13.4943 5.05643 13.4943 4.51712C13.4943 1.91043 11.2472 -0.246835 8.55059 0.0228226C6.21356 0.29248 4.50573 2.35986 4.50573 4.69689V7.21369H3.60687C3.15744 7.21369 2.70801 7.57324 2.70801 8.11255V17.1011C2.70801 17.5506 3.15744 18 3.60687 18H14.3932C14.9325 18 15.292 17.5506 15.292 17.1011V8.11255C15.292 7.57324 14.9325 7.21369 14.3932 7.21369ZM9.89888 13.236V14.4046C9.89888 14.9439 9.53933 15.3034 9.00002 15.3034C8.4607 15.3034 8.10116 14.9439 8.10116 14.4046V13.236C7.56185 12.8765 7.2023 12.3372 7.2023 11.708C7.2023 10.5395 8.28093 9.7305 9.44945 10.0002C10.0786 10.1799 10.618 10.7192 10.7977 11.3484C10.9775 12.1574 10.5281 12.8765 9.89888 13.236Z" fill="#FF9500"/>
</g>
<defs>
<clipPath id="clip0">
<rect width="18" height="18" fill="white"/>
</clipPath>
</defs>
</svg>
