<svg width="32" height="32" viewBox="0 0 32 32" fill="none" xmlns="http://www.w3.org/2000/svg">
<path d="M5.0547 30H22C22.2652 30 22.5196 29.8946 22.7071 29.7071C22.8946 29.5196 23 29.2652 23 29C23 28.7348 22.8946 28.4804 22.7071 28.2929C22.5196 28.1054 22.2652 28 22 28H5.0547C4.77507 27.9997 4.50697 27.8885 4.30924 27.6908C4.1115 27.493 4.00029 27.2249 4 26.9453V5.0547C4.00029 4.77507 4.1115 4.50697 4.30924 4.30924C4.50697 4.1115 4.77507 4.00029 5.0547 4H22C22.2652 4 22.5196 3.89464 22.7071 3.70711C22.8946 3.51957 23 3.26522 23 3C23 2.73478 22.8946 2.48043 22.7071 2.29289C22.5196 2.10536 22.2652 2 22 2H5.0547C4.2448 2.00085 3.46832 2.32295 2.89564 2.89564C2.32295 3.46832 2.00085 4.2448 2 5.0547V26.9453C2.00085 27.7552 2.32295 28.5317 2.89564 29.1044C3.46832 29.677 4.2448 29.9992 5.0547 30Z" fill="#C0C6CE"/>
<path d="M17.5615 26H26.4385C26.8944 26 27.3443 25.8961 27.754 25.6962C28.1638 25.4963 28.5226 25.2057 28.8032 24.8463C29.0837 24.487 29.2787 24.0684 29.3733 23.6225C29.4679 23.1765 29.4596 22.7148 29.3491 22.2725L28.7275 19.7876C28.4583 18.7051 27.8344 17.744 26.9553 17.0575C26.0761 16.371 24.9924 15.9987 23.877 16H20.123C19.0077 15.9988 17.9242 16.3711 17.0451 17.0575C16.1661 17.7439 15.5422 18.7048 15.273 19.7871L14.6514 22.2725C14.5408 22.7148 14.5325 23.1764 14.6271 23.6223C14.7217 24.0683 14.9166 24.4868 15.1971 24.8461C15.4777 25.2055 15.8364 25.4961 16.2461 25.6961C16.6558 25.896 17.1056 26 17.5615 26ZM16.5915 22.7578L17.2131 20.272C17.3746 19.6227 17.7489 19.0461 18.2763 18.6343C18.8037 18.2225 19.4538 17.9992 20.123 18H23.877C24.5462 17.9992 25.1964 18.2226 25.7238 18.6345C26.2513 19.0464 26.6256 19.623 26.787 20.2725L27.4086 22.7578C27.4454 22.9052 27.4481 23.0591 27.4165 23.2077C27.385 23.3563 27.32 23.4958 27.2265 23.6155C27.133 23.7352 27.0134 23.8321 26.8769 23.8987C26.7403 23.9653 26.5904 24 26.4385 24H17.5615C17.4096 24 17.2596 23.9653 17.1231 23.8987C16.9866 23.8321 16.867 23.7352 16.7735 23.6155C16.68 23.4957 16.615 23.3563 16.5835 23.2076C16.552 23.059 16.5547 22.9052 16.5915 22.7578Z" fill="#C0C6CE"/>
<path d="M22 6C21.2089 6 20.4355 6.2346 19.7777 6.67412C19.1199 7.11365 18.6072 7.73836 18.3045 8.46927C18.0017 9.20017 17.9225 10.0044 18.0769 10.7804C18.2312 11.5563 18.6122 12.269 19.1716 12.8284C19.731 13.3878 20.4437 13.7688 21.2196 13.9231C21.9956 14.0775 22.7998 13.9983 23.5307 13.6955C24.2616 13.3928 24.8864 12.8801 25.3259 12.2223C25.7654 11.5645 26 10.7911 26 10C25.9988 8.9395 25.577 7.92278 24.8271 7.17289C24.0772 6.423 23.0605 6.00119 22 6ZM22 12C21.6044 12 21.2178 11.8827 20.8889 11.6629C20.56 11.4432 20.3036 11.1308 20.1522 10.7654C20.0009 10.3999 19.9613 9.99778 20.0384 9.60982C20.1156 9.22186 20.3061 8.86549 20.5858 8.58579C20.8655 8.30608 21.2219 8.1156 21.6098 8.03843C21.9978 7.96126 22.3999 8.00087 22.7654 8.15224C23.1308 8.30362 23.4432 8.55996 23.6629 8.88886C23.8827 9.21776 24 9.60444 24 10C23.9995 10.5303 23.7886 11.0387 23.4136 11.4136C23.0387 11.7886 22.5303 11.9995 22 12Z" fill="#C0C6CE"/>
<path d="M7 8H12C12.2652 8 12.5196 7.89464 12.7071 7.70711C12.8946 7.51957 13 7.26522 13 7C13 6.73478 12.8946 6.48043 12.7071 6.29289C12.5196 6.10536 12.2652 6 12 6H7C6.73478 6 6.48043 6.10536 6.29289 6.29289C6.10536 6.48043 6 6.73478 6 7C6 7.26522 6.10536 7.51957 6.29289 7.70711C6.48043 7.89464 6.73478 8 7 8Z" fill="#C0C6CE"/>
<path d="M7 14C6.73478 14 6.48043 14.1054 6.29289 14.2929C6.10536 14.4804 6 14.7348 6 15C6 15.2652 6.10536 15.5196 6.29289 15.7071C6.48043 15.8946 6.73478 16 7 16H12C12.2652 16 12.5196 15.8946 12.7071 15.7071C12.8946 15.5196 13 15.2652 13 15C13 14.7348 12.8946 14.4804 12.7071 14.2929C12.5196 14.1054 12.2652 14 12 14H7Z" fill="#C0C6CE"/>
<path d="M16 11C16 10.7348 15.8946 10.4804 15.7071 10.2929C15.5196 10.1054 15.2652 10 15 10H7C6.73478 10 6.48043 10.1054 6.29289 10.2929C6.10536 10.4804 6 10.7348 6 11C6 11.2652 6.10536 11.5196 6.29289 11.7071C6.48043 11.8946 6.73478 12 7 12H15C15.2652 12 15.5196 11.8946 15.7071 11.7071C15.8946 11.5196 16 11.2652 16 11Z" fill="#C0C6CE"/>
</svg>
