<svg width="24" height="24" viewBox="0 0 24 24" fill="none" xmlns="http://www.w3.org/2000/svg">
<g clip-path="url(#clip0)">
<path d="M21.0632 21.2068C21.0042 21.1193 20.9096 21.0621 20.8046 21.0508H20.7567C14.5281 21.0574 9.47354 16.0135 9.46692 9.78491C9.46308 6.17445 11.1881 2.78039 14.107 0.655403C14.2713 0.545436 14.3153 0.323106 14.2054 0.158817C14.1384 0.058806 14.0257 -0.000872613 13.9053 9.64752e-06L13.9078 0.00253039C7.28112 0.00183719 1.90853 5.37329 1.90784 12C1.90714 18.6267 7.2786 23.9993 13.9053 24C16.4424 24.0003 18.9144 23.1963 20.9659 21.7036C21.13 21.5933 21.1735 21.3709 21.0632 21.2068Z" fill="#627083"/>
<path d="M17.2119 14.0754C17.1691 14.039 17.1184 14.0133 17.0638 14.0002L17.0613 13.9951L16.0934 13.7632L15.5741 12.9213C15.4717 12.7521 15.2517 12.6979 15.0825 12.8003C15.033 12.8302 14.9915 12.8717 14.9615 12.9213L14.4372 13.7632L13.4844 13.9951C13.2902 14.0323 13.163 14.2198 13.2002 14.414C13.2119 14.4753 13.2395 14.5325 13.2802 14.5799L13.9255 15.3362L13.8499 16.3293C13.8323 16.5263 13.9776 16.7001 14.1746 16.7177C14.236 16.7232 14.2978 16.7127 14.354 16.6873L15.2766 16.3092L16.1791 16.6797C16.3593 16.7609 16.5712 16.6806 16.6525 16.5004C16.6766 16.4467 16.6872 16.388 16.6832 16.3293L16.6076 15.3362L17.2529 14.5799C17.3809 14.4292 17.3626 14.2034 17.2119 14.0754Z" fill="#627083"/>
<path d="M18.7671 4.9405C18.7243 4.90414 18.6736 4.87843 18.619 4.86526L18.6241 4.87786L16.9705 4.47454L16.0781 3.03016C15.9758 2.86101 15.7557 2.80682 15.5866 2.90916C15.537 2.93909 15.4955 2.98062 15.4656 3.03016L14.5707 4.47958L12.9322 4.88038C12.7392 4.92286 12.6171 5.1138 12.6596 5.30689C12.6706 5.35693 12.6922 5.40407 12.723 5.44503L13.8246 6.74321L13.696 8.44219C13.6784 8.63912 13.8238 8.81299 14.0207 8.83057C14.0821 8.83606 14.144 8.82559 14.2002 8.80014L15.7756 8.15482L17.3309 8.79257C17.5112 8.87374 17.7231 8.79346 17.8043 8.61322C17.8285 8.55959 17.8391 8.50086 17.8351 8.44219L17.7065 6.74321L18.8081 5.44503C18.9361 5.29435 18.9177 5.06849 18.7671 4.9405Z" fill="#627083"/>
<path d="M21.966 10.7353C21.9232 10.6989 21.8725 10.6732 21.818 10.66L21.8079 10.655L21.0517 10.4735L20.6509 9.82313C20.5485 9.65398 20.3285 9.59979 20.1593 9.70213C20.1098 9.73206 20.0683 9.77359 20.0383 9.82313L19.6426 10.4861L18.9116 10.6651C18.7178 10.7041 18.5922 10.8927 18.6313 11.0866C18.6427 11.1437 18.668 11.1972 18.7049 11.2423L19.209 11.8296L19.151 12.5859C19.1334 12.7828 19.2788 12.9567 19.4757 12.9742C19.5371 12.9797 19.599 12.9693 19.6552 12.9438L20.366 12.6514L21.0567 12.9337C21.2369 13.0149 21.4489 12.9346 21.5301 12.7544C21.5542 12.7007 21.5648 12.642 21.5609 12.5833L21.5029 11.8271L22.007 11.2398C22.135 11.0891 22.1167 10.8632 21.966 10.7353Z" fill="#627083"/>
</g>
<defs>
<clipPath id="clip0">
<rect width="24" height="24" fill="white"/>
</clipPath>
</defs>
</svg>
