<svg width="32" height="32" viewBox="0 0 32 32" fill="none" xmlns="http://www.w3.org/2000/svg">
<g clip-path="url(#clip0)">
<path d="M29.593 8.68241L29.592 8.65751C29.5781 8.35013 29.5688 8.02494 29.5632 7.66313C29.5371 5.89873 28.1345 4.43926 26.3699 4.34062C22.6907 4.1353 19.8445 2.9356 17.4126 0.565245L17.3919 0.54547C16.5986 -0.181823 15.4021 -0.181823 14.6087 0.54547L14.5879 0.565245C12.156 2.9356 9.30984 4.1353 5.63066 4.34087C3.86626 4.43926 2.46343 5.89873 2.43731 7.66337C2.43193 8.02274 2.42241 8.34794 2.4085 8.65751L2.40703 8.71537C2.3355 12.4671 2.24663 17.1362 3.80864 21.3743C4.66752 23.7048 5.9683 25.7307 7.6746 27.396C9.61795 29.2925 12.1634 30.7981 15.24 31.8708C15.3401 31.9057 15.4441 31.9341 15.5501 31.9553C15.6995 31.9851 15.8499 32 16.0003 32C16.1506 32 16.3013 31.9851 16.4504 31.9553C16.5564 31.9341 16.6611 31.9055 16.7617 31.8703C19.8347 30.7956 22.3774 29.2893 24.3191 27.3931C26.0246 25.7273 27.3254 23.7009 28.185 21.3699C29.7529 17.1192 29.6643 12.4412 29.593 8.68241ZM26.4233 20.7202C24.7759 25.187 21.4128 28.2546 16.1421 30.0979C16.1233 30.1042 16.1033 30.1098 16.0825 30.114C16.0281 30.1247 15.9727 30.1247 15.9175 30.1137C15.897 30.1096 15.877 30.1042 15.8584 30.0979C10.5821 28.258 7.21683 25.1921 5.5706 20.7251C4.1309 16.8186 4.21245 12.5325 4.28447 8.75126L4.28496 8.73026C4.2996 8.40531 4.30937 8.06498 4.31474 7.69096C4.32646 6.90751 4.95048 6.25932 5.73539 6.21562C7.81742 6.09941 9.64651 5.69707 11.3272 4.98564C13.0056 4.2752 14.4964 3.27373 15.884 1.92413C15.9546 1.86456 16.0462 1.86431 16.1165 1.92413C17.5044 3.27373 18.9951 4.2752 20.6733 4.98564C22.354 5.69707 24.1831 6.09941 26.2654 6.21562C27.0503 6.25932 27.6743 6.90751 27.6858 7.6912C27.6914 8.06718 27.7012 8.40751 27.7158 8.73026C27.7876 12.5159 27.8672 16.8054 26.4233 20.7202Z" fill="#C0C6CE"/>
<path d="M15.9998 8.02588C11.6024 8.02588 8.02496 11.6035 8.02496 16.0007C8.02496 20.3982 11.6024 23.9758 15.9998 23.9758C20.397 23.9758 23.9747 20.3982 23.9747 16.0007C23.9747 11.6035 20.397 8.02588 15.9998 8.02588ZM15.9998 22.0979C12.6378 22.0979 9.90265 19.3628 9.90265 16.0007C9.90265 12.6387 12.6378 9.90356 15.9998 9.90356C19.3616 9.90356 22.0967 12.6387 22.0967 16.0007C22.0967 19.3628 19.3616 22.0979 15.9998 22.0979Z" fill="#C0C6CE"/>
<path d="M18.2918 13.5247L14.5877 17.2288L13.5823 16.2234C13.2156 15.8568 12.6212 15.8568 12.2545 16.2234C11.888 16.5901 11.888 17.1846 12.2545 17.5511L13.9239 19.2205C14.1072 19.4039 14.3475 19.4954 14.5877 19.4954C14.8279 19.4954 15.0682 19.4039 15.2515 19.2205L19.6197 14.8524C19.9861 14.4857 19.9861 13.8912 19.6197 13.5247C19.253 13.1578 18.6585 13.1578 18.2918 13.5247Z" fill="#C0C6CE"/>
</g>
<defs>
<clipPath id="clip0">
<rect width="32" height="32" fill="white"/>
</clipPath>
</defs>
</svg>
