<svg width="24" height="24" viewBox="0 0 24 24" fill="none" xmlns="http://www.w3.org/2000/svg">
<path d="M16.254 7.74604C15.1746 6.66667 13.6508 5.96826 12 5.96826C10.3492 5.96826 8.8254 6.63493 7.74604 7.74604C6.66667 8.8254 5.96826 10.3492 5.96826 12C5.96826 13.6508 6.66667 15.1746 7.74604 16.254C8.8254 17.3333 10.3492 18.0318 12 18.0318C13.6508 18.0318 15.1746 17.3651 16.254 16.254C17.3333 15.1746 18.0318 13.6508 18.0318 12C18.0318 10.3492 17.3651 8.8254 16.254 7.74604Z" fill="#627083"/>
<path d="M12.0001 4.09524C12.4445 4.09524 12.8255 3.71428 12.8255 3.26984V0.825397C12.8255 0.380952 12.4445 0 12.0001 0C11.5556 0 11.1747 0.380952 11.1747 0.825397V3.26984C11.1747 3.71428 11.5556 4.09524 12.0001 4.09524Z" fill="#627083"/>
<path d="M18.7619 6.41263L20.508 4.6666C20.8254 4.34914 20.8254 3.8412 20.508 3.52374C20.1905 3.20628 19.6826 3.20628 19.3651 3.52374L17.6191 5.26977C17.3016 5.58723 17.3016 6.09517 17.6191 6.41263C17.9048 6.73009 18.4127 6.73009 18.7619 6.41263Z" fill="#627083"/>
<path d="M23.1746 11.1748H20.7302C20.2857 11.1748 19.9048 11.5558 19.9048 12.0002C19.9048 12.4446 20.2857 12.8256 20.7302 12.8256H23.1746C23.6191 12.8256 24 12.4446 24 12.0002C24 11.5558 23.6191 11.1748 23.1746 11.1748Z" fill="#627083"/>
<path d="M18.7302 17.5872C18.4127 17.2698 17.9048 17.2698 17.5873 17.5872C17.2699 17.9047 17.2699 18.4126 17.5873 18.7301L19.3334 20.4761C19.6508 20.7936 20.1588 20.7936 20.4762 20.4761C20.7937 20.1586 20.7937 19.6507 20.4762 19.3332L18.7302 17.5872Z" fill="#627083"/>
<path d="M12.0001 19.9048C11.5556 19.9048 11.1747 20.2857 11.1747 20.7302V23.1746C11.1747 23.6191 11.5556 24 12.0001 24C12.4445 24 12.8255 23.6191 12.8255 23.1746V20.7302C12.8255 20.2857 12.4445 19.9048 12.0001 19.9048Z" fill="#627083"/>
<path d="M5.23803 17.5872L3.492 19.3332C3.17454 19.6507 3.17454 20.1586 3.492 20.4761C3.80946 20.7936 4.3174 20.7936 4.63486 20.4761L6.38089 18.7301C6.69835 18.4126 6.69835 17.9047 6.38089 17.5872C6.09518 17.2698 5.58724 17.2698 5.23803 17.5872Z" fill="#627083"/>
<path d="M4.09524 12.0002C4.09524 11.5558 3.71429 11.1748 3.26984 11.1748H0.825397C0.380952 11.1748 0 11.5558 0 12.0002C0 12.4446 0.380952 12.8256 0.825397 12.8256H3.26984C3.71429 12.8256 4.09524 12.4446 4.09524 12.0002Z" fill="#627083"/>
<path d="M5.23803 6.41263C5.5555 6.73009 6.06343 6.73009 6.38089 6.41263C6.69835 6.09517 6.69835 5.58723 6.38089 5.26977L4.63486 3.52374C4.3174 3.20628 3.80946 3.20628 3.492 3.52374C3.17454 3.8412 3.17454 4.34914 3.492 4.6666L5.23803 6.41263Z" fill="#627083"/>
</svg>
