<svg width="32" height="32" viewBox="0 0 32 32" fill="none" xmlns="http://www.w3.org/2000/svg">
<path d="M23.4053 5.08902C23.3396 4.97527 23.2522 4.87556 23.148 4.7956C23.0438 4.71563 22.9249 4.65697 22.798 4.62297C22.6712 4.58896 22.5388 4.58028 22.4086 4.59741C22.2784 4.61454 22.1528 4.65716 22.0391 4.72282C21.9253 4.78848 21.8256 4.8759 21.7457 4.9801C21.6657 5.08429 21.607 5.20321 21.573 5.33008C21.539 5.45694 21.5303 5.58926 21.5475 5.71948C21.5646 5.8497 21.6072 5.97527 21.6729 6.08902L27.5729 16.3077L21.962 26.0255H17.3887L18.457 24.9571C18.6391 24.7685 18.7399 24.5159 18.7376 24.2537C18.7354 23.9915 18.6302 23.7407 18.4448 23.5553C18.2594 23.3699 18.0086 23.2647 17.7464 23.2624C17.4842 23.2602 17.2316 23.361 17.043 23.5431L14.543 26.0431C14.4501 26.1359 14.3764 26.2461 14.3261 26.3675C14.2758 26.4888 14.2499 26.6188 14.2499 26.7501C14.2499 26.8814 14.2758 27.0115 14.3261 27.1328C14.3764 27.2541 14.4501 27.3643 14.543 27.4571L17.043 29.9571C17.2316 30.1393 17.4842 30.2401 17.7464 30.2378C18.0086 30.2355 18.2594 30.1303 18.4448 29.9449C18.6302 29.7595 18.7354 29.5087 18.7376 29.2465C18.7399 28.9843 18.6391 28.7317 18.457 28.5431L17.9395 28.0255H22.5395C22.715 28.0255 22.8875 27.9794 23.0396 27.8916C23.1916 27.8038 23.3179 27.6776 23.4057 27.5255L29.5942 16.8077C29.6817 16.6556 29.7278 16.4832 29.7278 16.3077C29.7278 16.1322 29.6817 15.9598 29.5942 15.8077L23.4053 5.08902Z" fill="#C0C6CE"/>
<path d="M5.12938 16.3075L10.7394 6.58882H14.4968L13.5427 7.54292C13.4472 7.63517 13.371 7.74551 13.3186 7.86751C13.2662 7.98952 13.2386 8.12074 13.2374 8.25352C13.2363 8.3863 13.2616 8.51798 13.3119 8.64087C13.3621 8.76377 13.4364 8.87542 13.5303 8.96931C13.6242 9.06321 13.7358 9.13746 13.8587 9.18774C13.9816 9.23802 14.1133 9.26332 14.2461 9.26217C14.3789 9.26102 14.5101 9.23343 14.6321 9.18102C14.7541 9.12861 14.8644 9.05243 14.9567 8.95692L17.4567 6.45692C17.5496 6.3641 17.6233 6.25389 17.6736 6.13258C17.7238 6.01127 17.7497 5.88124 17.7497 5.74992C17.7497 5.6186 17.7238 5.48857 17.6736 5.36726C17.6233 5.24595 17.5496 5.13573 17.4567 5.04292L14.9567 2.54292C14.7681 2.36076 14.5155 2.25997 14.2533 2.26224C13.9911 2.26452 13.7403 2.36969 13.5549 2.5551C13.3695 2.74051 13.2643 2.99132 13.262 3.25352C13.2597 3.51571 13.3605 3.76832 13.5427 3.95692L14.1745 4.58882H10.1626C9.98702 4.58879 9.81454 4.63498 9.66248 4.72275C9.51043 4.81052 9.38417 4.93677 9.29638 5.08882L3.10838 15.8075C3.02082 15.9596 2.97473 16.132 2.97473 16.3075C2.97473 16.483 3.02082 16.6554 3.10838 16.8075L9.29638 27.5253C9.42899 27.755 9.64743 27.9227 9.90364 27.9914C10.1599 28.06 10.4329 28.0241 10.6626 27.8915C10.8923 27.7589 11.06 27.5405 11.1286 27.2843C11.1973 27.028 11.1614 26.755 11.0288 26.5253L5.12938 16.3075Z" fill="#C0C6CE"/>
<path d="M18.1753 20.1598C18.3508 20.1599 18.5233 20.1137 18.6754 20.0259C18.8274 19.9381 18.9537 19.8119 19.0415 19.6598L20.8662 16.4998C20.9537 16.3478 20.9998 16.1753 20.9998 15.9998C20.9998 15.8243 20.9537 15.6519 20.8662 15.4998L19.0415 12.3398C18.9537 12.1878 18.8274 12.0615 18.6754 11.9738C18.5233 11.886 18.3508 11.8398 18.1753 11.8398H14.5264C14.3508 11.8398 14.1783 11.886 14.0263 11.9738C13.8742 12.0615 13.748 12.1878 13.6602 12.3398L11.8354 15.4998C11.7478 15.6519 11.7017 15.8243 11.7017 15.9998C11.7017 16.1753 11.7478 16.3478 11.8354 16.4998L13.66 19.6598C13.7478 19.8119 13.874 19.9381 14.0261 20.0259C14.1781 20.1137 14.3506 20.1599 14.5262 20.1598H18.1753ZM15.1035 13.8398H17.5981L18.8452 15.9998L17.5981 18.1598H15.1035L13.8564 15.9998L15.1035 13.8398Z" fill="#C0C6CE"/>
</svg>
