;<svg
  width="24"
  height="24"
  viewBox="0 0 24 24"
  fill="none"
  xmlns="http://www.w3.org/2000/svg">
  <path
    d="M10.5779 4C10.1185 2.9472 9.31048 2.08471 8.28988 1.55757C7.26927 1.03043 6.09828 0.870777 4.97381 1.10547C3.84934 1.34016 2.83997 1.95487 2.11543 2.84625C1.39089 3.73763 0.995361 4.8513 0.995361 6C0.995361 7.1487 1.39089 8.26237 2.11543 9.15375C2.83997 10.0451 3.84934 10.6598 4.97381 10.8945C6.09828 11.1292 7.26927 10.9696 8.28988 10.4424C9.31048 9.91529 10.1185 9.0528 10.5779 8H14.9999L16.9999 10L18.9999 8H20.9999L21.9999 4H10.5779Z"
    stroke="#9593C8"
    strokeWidth="2"
    strokeMiterlimit="10"
  />
  <path
    d="M6 8C7.10457 8 8 7.10457 8 6C8 4.89543 7.10457 4 6 4C4.89543 4 4 4.89543 4 6C4 7.10457 4.89543 8 6 8Z"
    fill="#9593C8"
  />
  <path
    d="M5.99982 15V18L4.41382 19.586"
    stroke="#9593C8"
    strokeWidth="2"
    strokeMiterlimit="10"
    strokeLinecap="square"
  />
  <path
    d="M18 15V18L19.589 19.589"
    stroke="#9593C8"
    strokeWidth="2"
    strokeMiterlimit="10"
    strokeLinecap="square"
  />
  <path
    d="M3 23C4.10457 23 5 22.1046 5 21C5 19.8954 4.10457 19 3 19C1.89543 19 1 19.8954 1 21C1 22.1046 1.89543 23 3 23Z"
    stroke="#9593C8"
    strokeWidth="2"
    strokeMiterlimit="10"
  />
  <path
    d="M12 23C13.1046 23 14 22.1046 14 21C14 19.8954 13.1046 19 12 19C10.8954 19 10 19.8954 10 21C10 22.1046 10.8954 23 12 23Z"
    stroke="#9593C8"
    strokeWidth="2"
    strokeMiterlimit="10"
  />
  <path
    d="M21 23C22.1046 23 23 22.1046 23 21C23 19.8954 22.1046 19 21 19C19.8954 19 19 19.8954 19 21C19 22.1046 19.8954 23 21 23Z"
    stroke="#9593C8"
    strokeWidth="2"
    strokeMiterlimit="10"
  />
  <path
    d="M12 19V12"
    stroke="#9593C8"
    strokeWidth="2"
    strokeMiterlimit="10"
    strokeLinecap="square"
  />
</svg>
