<svg width="24" height="24" viewBox="0 0 24 24" fill="none" xmlns="http://www.w3.org/2000/svg">
<g>
    <path d="M7 19C7.55228 19 8 18.5523 8 18C8 17.4477 7.55228 17 7 17C6.44772 17 6 17.4477 6 18C6 18.5523 6.44772 19 7 19Z" stroke="#9593C8" stroke-width="2" stroke-miterlimit="10"/>
    <path d="M13 14H1V23H13V14Z" stroke="#9593C8" stroke-width="2" stroke-miterlimit="10"/>
    <path d="M4 14V10C4 8.343 5.343 7 7 7C8.657 7 10 8.343 10 10V14" stroke="#9593C8" stroke-width="2" stroke-miterlimit="10"/>
    <path d="M19 10C19 7.239 16.761 5 14 5" stroke="#9593C8" stroke-width="2" stroke-miterlimit="10"/>
    <path d="M23 10C23 5.029 18.971 1 14 1" stroke="#9593C8" stroke-width="2" stroke-miterlimit="10"/>
</g>
</svg>
