<svg viewBox="" fill="none" xmlns="http://www.w3.org/2000/svg">
  <rect
    width="354"
    height="196"
    rx="8"
    fill="#141245"
    fillOpacity="0.12"
  />
  <rect
    x="0.5"
    y="0.5"
    width="353"
    height="195"
    rx="7.5"
    stroke="#141245"
    strokeOpacity="0.1"
  />
  <rect
    x="18"
    y="65.4889"
    width="96"
    height="109.511"
    rx="8"
    fill="#6E6D8F"
    fillOpacity="0.24"
  />
  <rect
    x="18.5"
    y="65.9889"
    width="95"
    height="108.511"
    rx="7.5"
    stroke="white"
    strokeOpacity="0.1"
  />
  <rect
    x="18"
    y="17.9996"
    width="118"
    height="40"
    rx="8"
    fill="#6E6D8F"
    fillOpacity="0.24"
  />
  <rect
    x="18.5"
    y="18.4996"
    width="117"
    height="39"
    rx="7.5"
    stroke="white"
    strokeOpacity="0.1"
  />
  <path
    d="M86.8727 131.545C82.7074 130.04 75.7661 128.244 66.3554 128.244C56.9447 128.244 50.0034 130.04 45.8381 131.545C42.6914 132.683 40.5776 135.705 40.5776 139.066V146.911C40.5776 147.402 40.9759 147.8 41.4665 147.8H91.2443C91.735 147.8 92.1332 147.402 92.1332 146.911V139.066C92.1332 135.705 90.0194 132.683 86.8727 131.545Z"
    fill="white"
    fillOpacity="0.8"
  />
  <path
    d="M66.3553 122.911C73.7073 122.911 79.6886 116.93 79.6886 109.578V106.022C79.6886 98.6702 73.7073 92.6889 66.3553 92.6889C59.0033 92.6889 53.022 98.6702 53.022 106.022V109.578C53.022 116.93 59.0033 122.911 66.3553 122.911Z"
    fill="white"
    fillOpacity="0.8"
  />
  <rect
    opacity="0.4"
    x="162"
    y="35"
    width="76"
    height="10"
    rx="5"
    fill="#141245"
  />
  <rect
    opacity="0.4"
    x="244"
    y="35"
    width="46"
    height="10"
    rx="5"
    fill="#141245"
  />
  <rect
    x="162"
    y="58"
    width="86"
    height="10"
    rx="5"
    fill="#6E6D8F"
    fillOpacity="0.4"
  />
  <rect
    x="162"
    y="112"
    width="86"
    height="10"
    rx="5"
    fill="#6E6D8F"
    fillOpacity="0.4"
  />
  <rect
    x="162"
    y="76"
    width="80"
    height="10"
    rx="5"
    fill="#6E6D8F"
    fillOpacity="0.4"
  />
  <rect
    x="162"
    y="130"
    width="109"
    height="10"
    rx="5"
    fill="#6E6D8F"
    fillOpacity="0.4"
  />
  <rect
    x="162"
    y="94"
    width="109"
    height="10"
    rx="5"
    fill="#6E6D8F"
    fillOpacity="0.4"
  />
  <rect
    x="161.953"
    y="148.422"
    width="74.9984"
    height="10"
    rx="5"
    transform="rotate(-0.561382 161.953 148.422)"
    fill="#6E6D8F"
    fillOpacity="0.4"
  />
</svg>