<svg viewBox="0 0 24 24" fill="none" xmlns="http://www.w3.org/2000/svg">
  <path
    d="M12 0C5.38281 0 0 5.3833 0 12C0 18.6167 5.38281 24 12 24C18.6172 24 24 18.6167 24 12C24 5.3833 18.6172 0 12 0ZM12 2C16.0914 2 19.6125 4.4726 21.1592 8H2.84082C4.38751 4.4726 7.90857 2 12 2ZM2 12C2 11.8925 2.01276 11.7883 2.01611 11.6816C6.30609 13.197 9.45941 17.0975 9.93665 21.7834C5.40985 20.8297 2 16.8066 2 12ZM12 15C10.8954 15 10 14.1046 10 13C10 11.8954 10.8954 11 12 11C13.1046 11 14 11.8954 14 13C14 14.1046 13.1046 15 12 15ZM14.0634 21.7834C14.5406 17.0975 17.6939 13.197 21.9839 11.6816C21.9872 11.7883 22 11.8925 22 12C22 16.8066 18.5901 20.8297 14.0634 21.7834Z"
    fill="white"
  />
</svg>