<svg fill="none" xmlns="http://www.w3.org/2000/svg">
  <rect width="354" height="196" rx="8" fill="white" fillOpacity="0.08" />
  <rect
    x="0.5"
    y="0.5"
    width="353"
    height="195"
    rx="7.5"
    stroke="white"
    strokeOpacity="0.1"
  />
  <rect
    x="18"
    y="65.4889"
    width="96"
    height="109.511"
    rx="8"
    fill="white"
    fillOpacity="0.08"
  />
  <rect
    x="18.5"
    y="65.9889"
    width="95"
    height="108.511"
    rx="7.5"
    stroke="white"
    strokeOpacity="0.1"
  />
  <rect
    x="18.5"
    y="18.4996"
    width="117"
    height="39"
    rx="7.5"
    stroke="white"
    strokeOpacity="0.1"
  />
  <path
    d="M86.8732 131.545C82.7079 130.04 75.7666 128.244 66.3559 128.244C56.9452 128.244 50.0039 130.04 45.8386 131.545C42.6919 132.683 40.5781 135.705 40.5781 139.066V146.911C40.5781 147.402 40.9763 147.8 41.467 147.8H91.2448C91.7355 147.8 92.1337 147.402 92.1337 146.911V139.066C92.1337 135.705 90.0199 132.683 86.8732 131.545Z"
    fill="white"
    fillOpacity="0.32"
  />
  <path
    d="M66.3558 122.911C73.7078 122.911 79.6891 116.93 79.6891 109.578V106.022C79.6891 98.6702 73.7078 92.6889 66.3558 92.6889C59.0038 92.6889 53.0225 98.6702 53.0225 106.022V109.578C53.0225 116.93 59.0038 122.911 66.3558 122.911Z"
    fill="white"
    fillOpacity="0.32"
  />
  <rect
    x="162"
    y="35"
    width="76"
    height="10"
    rx="5"
    fill="white"
    fillOpacity="0.32"
  />
  <rect
    x="244"
    y="35"
    width="46"
    height="10"
    rx="5"
    fill="white"
    fillOpacity="0.32"
  />
  <rect
    x="162"
    y="58"
    width="86"
    height="10"
    rx="5"
    fill="white"
    fillOpacity="0.12"
  />
  <rect
    x="162"
    y="112"
    width="86"
    height="10"
    rx="5"
    fill="white"
    fillOpacity="0.12"
  />
  <rect
    x="162"
    y="76"
    width="80"
    height="10"
    rx="5"
    fill="white"
    fillOpacity="0.12"
  />
  <rect
    x="162"
    y="130"
    width="109"
    height="10"
    rx="5"
    fill="white"
    fillOpacity="0.12"
  />
  <rect
    x="162"
    y="94"
    width="109"
    height="10"
    rx="5"
    fill="white"
    fillOpacity="0.12"
  />
  <rect
    x="161.953"
    y="148.422"
    width="74.9984"
    height="10"
    rx="5"
    transform="rotate(-0.561382 161.953 148.422)"
    fill="white"
    fillOpacity="0.12"
  />
</svg>