<svg viewBox="0 0 24 24" fill="none" xmlns="http://www.w3.org/2000/svg">
  <path
    d="M44 20V14C43.9905 10.8203 42.7232 7.77359 40.4748 5.52521C38.2264 3.27683 35.1797 2.0095 32 2V2C28.8203 2.0095 25.7736 3.27683 23.5252 5.52521C21.2768 7.77359 20.0095 10.8203 20 14V20"
    stroke="url(#paint0_linear_328_2268)"
    strokeWidth="2"
    strokeMiterlimit="10"
    strokeLinecap="square"
  />
  <path
    d="M50 28H14C10.6863 28 8 30.6863 8 34V56C8 59.3137 10.6863 62 14 62H50C53.3137 62 56 59.3137 56 56V34C56 30.6863 53.3137 28 50 28Z"
    stroke="url(#paint1_linear_328_2268)"
    strokeWidth="2"
    strokeMiterlimit="10"
    strokeLinecap="square"
  />
  <path
    d="M32 48V54"
    stroke="url(#paint2_linear_328_2268)"
    strokeWidth="2"
    strokeMiterlimit="10"
    strokeLinecap="square"
  />
  <path
    d="M32 48C35.3137 48 38 45.3137 38 42C38 38.6863 35.3137 36 32 36C28.6863 36 26 38.6863 26 42C26 45.3137 28.6863 48 32 48Z"
    stroke="url(#paint3_linear_328_2268)"
    strokeWidth="2"
    strokeMiterlimit="10"
    strokeLinecap="square"
  />
  <defs>
    <linearGradient
      id="paint0_linear_328_2268"
      x1="20"
      y1="8.42858"
      x2="44.4887"
      y2="8.64892"
      gradientUnits="userSpaceOnUse">
      <stop stopColor="#AA1FEC" />
      <stop offset="1" stopColor="#7A3BFE" />
    </linearGradient>
    <linearGradient
      id="paint1_linear_328_2268"
      x1="8"
      y1="40.1429"
      x2="56.977"
      y2="40.6095"
      gradientUnits="userSpaceOnUse">
      <stop stopColor="#AA1FEC" />
      <stop offset="1" stopColor="#7A3BFE" />
    </linearGradient>
    <linearGradient
      id="paint2_linear_328_2268"
      x1="32"
      y1="50.1429"
      x2="33.0204"
      y2="50.144"
      gradientUnits="userSpaceOnUse">
      <stop stopColor="#AA1FEC" />
      <stop offset="1" stopColor="#7A3BFE" />
    </linearGradient>
    <linearGradient
      id="paint3_linear_328_2268"
      x1="26"
      y1="40.2857"
      x2="38.2448"
      y2="40.3684"
      gradientUnits="userSpaceOnUse">
      <stop stopColor="#AA1FEC" />
      <stop offset="1" stopColor="#7A3BFE" />
    </linearGradient>
  </defs>
</svg>