<svg fill="none" xmlns="http://www.w3.org/2000/svg">
  <rect
    width="354"
    height="196"
    rx="8"
    fill="#141245"
    fillOpacity="0.12"
  />
  <rect
    x="0.5"
    y="0.5"
    width="353"
    height="195"
    rx="7.5"
    stroke="#141245"
    strokeOpacity="0.1"
  />
  <rect
    x="216.5"
    y="117.5"
    width="105"
    height="47"
    rx="7.5"
    stroke="white"
    strokeOpacity="0.1"
  />
  <rect
    opacity="0.4"
    x="32"
    y="155"
    width="33"
    height="10"
    rx="5"
    fill="#141245"
  />
  <rect
    x="70"
    y="155"
    width="33"
    height="10"
    rx="5"
    fill="#6E6D8F"
    fillOpacity="0.4"
  />
  <rect
    x="108"
    y="155"
    width="71"
    height="10"
    rx="5"
    fill="#6E6D8F"
    fillOpacity="0.4"
  />
  <rect
    x="32"
    y="36"
    width="90"
    height="10"
    rx="5"
    fill="#6E6D8F"
    fillOpacity="0.4"
  />
  <rect
    x="183"
    y="36"
    width="130"
    height="10"
    rx="5"
    fill="#6E6D8F"
    fillOpacity="0.4"
  />
  <rect
    x="32"
    y="54"
    width="109"
    height="10"
    rx="5"
    fill="#6E6D8F"
    fillOpacity="0.4"
  />
  <rect
    x="183"
    y="54"
    width="48"
    height="10"
    rx="5"
    fill="#6E6D8F"
    fillOpacity="0.4"
  />
  <rect
    x="237"
    y="54"
    width="48"
    height="10"
    rx="5"
    fill="white"
    fillOpacity="0.12"
  />
  <rect
    x="32"
    y="72"
    width="76"
    height="10"
    rx="5"
    fill="#6E6D8F"
    fillOpacity="0.4"
  />
  <rect
    x="183"
    y="72"
    width="107"
    height="10"
    rx="5"
    fill="#6E6D8F"
    fillOpacity="0.4"
  />
</svg>