<svg viewBox="0 0 24 24" fill="none" xmlns="http://www.w3.org/2000/svg">
  <path
    d="M23 2H19C19 3.105 18.105 4 17 4C15.895 4 15 3.105 15 2H9C9 3.105 8.105 4 7 4C5.895 4 5 3.105 5 2H1C0.448 2 0 2.448 0 3V21C0 21.552 0.448 22 1 22H23C23.552 22 24 21.552 24 21V3C24 2.448 23.552 2 23 2ZM8 9C9.105 9 10 9.895 10 11C10 12.105 9.105 13 8 13C6.895 13 6 12.105 6 11C6 9.895 6.895 9 8 9ZM4 17C4 15.343 5.343 14 7 14H9C10.657 14 12 15.343 12 17H4ZM20 16H14V14H20V16ZM20 12H14V10H20V12Z"
    fill="white"
  />
</svg>