<svg fill="none" xmlns="http://www.w3.org/2000/svg">
  <rect
    width="354"
    height="196"
    rx="8"
    fill="#141245"
    fillOpacity="0.12"
  />
  <rect
    x="0.5"
    y="0.5"
    width="353"
    height="195"
    rx="7.5"
    stroke="#141245"
    strokeOpacity="0.1"
  />
  <rect
    x="18"
    y="21"
    width="135"
    height="154"
    rx="8"
    fill="#6E6D8F"
    fillOpacity="0.24"
  />
  <rect
    x="18.5"
    y="21.5"
    width="134"
    height="153"
    rx="7.5"
    stroke="white"
    strokeOpacity="0.1"
  />
  <path
    d="M114.853 113.891C108.995 111.775 99.2337 109.25 86 109.25C72.7663 109.25 63.005 111.775 57.1475 113.891C52.7225 115.491 49.75 119.741 49.75 124.467V135.5C49.75 136.19 50.31 136.75 51 136.75H121C121.69 136.75 122.25 136.19 122.25 135.5V124.467C122.25 119.741 119.278 115.491 114.853 113.891Z"
    fill="white"
    fillOpacity="0.8"
  />
  <path
    d="M86 101.75C96.3387 101.75 104.75 93.3387 104.75 83V78C104.75 67.6613 96.3387 59.25 86 59.25C75.6613 59.25 67.25 67.6613 67.25 78V83C67.25 93.3387 75.6613 101.75 86 101.75Z"
    fill="white"
    fillOpacity="0.8"
  />
  <rect
    opacity="0.4"
    x="177"
    y="35"
    width="135"
    height="10"
    rx="5"
    fill="#141245"
  />
  <rect
    x="177"
    y="151"
    width="33"
    height="10"
    rx="5"
    fill="#6E6D8F"
    fillOpacity="0.4"
  />
  <rect
    x="215"
    y="151"
    width="33"
    height="10"
    rx="5"
    fill="#6E6D8F"
    fillOpacity="0.4"
  />
  <rect
    x="253"
    y="151"
    width="71"
    height="10"
    rx="5"
    fill="#6E6D8F"
    fillOpacity="0.4"
  />
  <rect
    x="177"
    y="58"
    width="90"
    height="10"
    rx="5"
    fill="#6E6D8F"
    fillOpacity="0.4"
  />
  <rect
    x="177"
    y="76"
    width="109"
    height="10"
    rx="5"
    fill="#6E6D8F"
    fillOpacity="0.4"
  />
  <rect
    x="177"
    y="94"
    width="76"
    height="10"
    rx="5"
    fill="#6E6D8F"
    fillOpacity="0.4"
  />
</svg>