<svg viewBox="0 0 24 24" fill="none" xmlns="http://www.w3.org/2000/svg">
  <path
    d="M16 6H6V16H16V6Z"
    stroke="CurrentColor"
    strokeWidth="2"
    strokeMiterlimit="10"
    strokeLinecap="square"
  />
  <path
    d="M18.723 1H21V3.277C20.6961 3.45047 20.4435 3.70123 20.2679 4.00382C20.0922 4.30642 19.9996 4.6501 19.9996 5C19.9996 5.3499 20.0922 5.69358 20.2679 5.99618C20.4435 6.29877 20.6961 6.54953 21 6.723V9.277C20.6961 9.45047 20.4435 9.70123 20.2679 10.0038C20.0922 10.3064 19.9996 10.6501 19.9996 11C19.9996 11.3499 20.0922 11.6936 20.2679 11.9962C20.4435 12.2988 20.6961 12.5495 21 12.723V15.277C20.6961 15.4505 20.4435 15.7012 20.2679 16.0038C20.0922 16.3064 19.9996 16.6501 19.9996 17C19.9996 17.3499 20.0922 17.6936 20.2679 17.9962C20.4435 18.2988 20.6961 18.5495 21 18.723V21H18.723C18.5495 20.6961 18.2988 20.4435 17.9962 20.2679C17.6936 20.0922 17.3499 19.9996 17 19.9996C16.6501 19.9996 16.3064 20.0922 16.0038 20.2679C15.7012 20.4435 15.4505 20.6961 15.277 21H12.723C12.5495 20.6961 12.2988 20.4435 11.9962 20.2679C11.6936 20.0922 11.3499 19.9996 11 19.9996C10.6501 19.9996 10.3064 20.0922 10.0038 20.2679C9.70123 20.4435 9.45047 20.6961 9.277 21H6.723C6.54953 20.6961 6.29877 20.4435 5.99618 20.2679C5.69358 20.0922 5.3499 19.9996 5 19.9996C4.6501 19.9996 4.30642 20.0922 4.00382 20.2679C3.70123 20.4435 3.45047 20.6961 3.277 21H1V18.723C1.30387 18.5495 1.55646 18.2988 1.73215 17.9962C1.90783 17.6936 2.00037 17.3499 2.00037 17C2.00037 16.6501 1.90783 16.3064 1.73215 16.0038C1.55646 15.7012 1.30387 15.4505 1 15.277V12.723C1.30387 12.5495 1.55646 12.2988 1.73215 11.9962C1.90783 11.6936 2.00037 11.3499 2.00037 11C2.00037 10.6501 1.90783 10.3064 1.73215 10.0038C1.55646 9.70123 1.30387 9.45047 1 9.277V6.723C1.30387 6.54953 1.55646 6.29877 1.73215 5.99618C1.90783 5.69358 2.00037 5.3499 2.00037 5C2.00037 4.6501 1.90783 4.30642 1.73215 4.00382C1.55646 3.70123 1.30387 3.45047 1 3.277V1H3.277C3.45047 1.30387 3.70123 1.55646 4.00382 1.73215C4.30642 1.90783 4.6501 2.00037 5 2.00037C5.3499 2.00037 5.69358 1.90783 5.99618 1.73215C6.29877 1.55646 6.54953 1.30387 6.723 1H9.277C9.45047 1.30387 9.70123 1.55646 10.0038 1.73215C10.3064 1.90783 10.6501 2.00037 11 2.00037C11.3499 2.00037 11.6936 1.90783 11.9962 1.73215C12.2988 1.55646 12.5495 1.30387 12.723 1H15.277C15.4505 1.30387 15.7012 1.55646 16.0038 1.73215C16.3064 1.90783 16.6501 2.00037 17 2.00037C17.3499 2.00037 17.6936 1.90783 17.9962 1.73215C18.2988 1.55646 18.5495 1.30387 18.723 1V1Z"
    stroke="CurrentColor"
    strokeWidth="2"
    strokeMiterlimit="10"
    strokeLinecap="square"
  />
</svg>