<svg fill="none" xmlns="http://www.w3.org/2000/svg">
  <rect width="354" height="196" rx="8" fill="white" fillOpacity="0.08" />
  <rect
    x="0.5"
    y="0.5"
    width="353"
    height="195"
    rx="7.5"
    stroke="white"
    strokeOpacity="0.1"
  />
  <path
    opacity="0.12"
    d="M137.772 148.713C127.925 145.515 123.125 137.235 120.783 130.068C115.11 132.878 108.747 134.5 102 134.5C95.25 134.5 88.8875 132.878 83.215 130.065C80.87 137.235 76.07 145.518 66.2275 148.713C46.1325 155.238 29.5 162.997 29.5 192C29.5 193.38 30.62 194.5 32 194.5H172C173.38 194.5 174.5 193.38 174.5 192C174.5 162.997 157.867 155.238 137.772 148.713Z"
    fill="white"
  />
  <path
    opacity="0.32"
    d="M102 39.5C81.3225 39.5 64.5 56.3225 64.5 77V92C64.5 112.677 81.3225 129.5 102 129.5C122.677 129.5 139.5 112.677 139.5 92V77C139.5 56.3225 122.677 39.5 102 39.5Z"
    fill="white"
  />
  <rect
    x="127"
    y="91"
    width="158.939"
    height="88"
    rx="8.14815"
    fill="#141343"
  />
  <rect
    x="127.407"
    y="91.4074"
    width="158.124"
    height="87.1852"
    rx="7.74074"
    stroke="white"
    strokeOpacity="0.1"
    strokeWidth="0.814815"
  />
  <rect
    x="135.082"
    y="100.428"
    width="60.6122"
    height="69.1429"
    rx="3.59184"
    fill="white"
    fillOpacity="0.08"
  />
  <rect
    x="135.307"
    y="100.653"
    width="60.1633"
    height="68.6939"
    rx="3.36735"
    stroke="white"
    strokeOpacity="0.1"
    strokeWidth="0.44898"
  />
  <g clipPath="url(#clip0_328_4185)">
    <path
      d="M178.567 142.135C175.937 141.185 171.554 140.051 165.612 140.051C159.671 140.051 155.288 141.185 152.658 142.135C150.672 142.853 149.337 144.761 149.337 146.883V151.837C149.337 152.146 149.588 152.398 149.898 152.398H181.327C181.637 152.398 181.888 152.146 181.888 151.837V146.883C181.888 144.761 180.553 142.853 178.567 142.135Z"
      fill="white"
      fillOpacity="0.32"
    />
    <path
      d="M165.613 136.684C170.255 136.684 174.031 132.907 174.031 128.265V126.021C174.031 121.379 170.255 117.602 165.613 117.602C160.971 117.602 157.194 121.379 157.194 126.021V128.265C157.194 132.907 160.971 136.684 165.613 136.684Z"
      fill="white"
      fillOpacity="0.32"
    />
  </g>
  <rect
    x="206.47"
    y="106.714"
    width="60.6122"
    height="4.4898"
    rx="2.2449"
    fill="white"
    fillOpacity="0.12"
  />
  <rect
    x="206.47"
    y="114.796"
    width="60.6122"
    height="4.4898"
    rx="2.2449"
    fill="white"
    fillOpacity="0.12"
  />
  <rect
    x="206.47"
    y="135.898"
    width="40.4082"
    height="4.4898"
    rx="2.2449"
    fill="white"
    fillOpacity="0.12"
  />
  <rect
    x="206.47"
    y="143.98"
    width="48.9388"
    height="4.4898"
    rx="2.2449"
    fill="white"
    fillOpacity="0.12"
  />
  <rect
    x="206.47"
    y="152.061"
    width="34.1224"
    height="4.4898"
    rx="2.2449"
    fill="white"
    fillOpacity="0.12"
  />
  <defs>
    <clipPath id="clip0_328_4185">
      <rect
        width="35.9184"
        height="35.9184"
        fill="white"
        transform="translate(147.653 117.041)"
      />
    </clipPath>
  </defs>
</svg>