<svg viewBox="0 0 12 12" fill="none" xmlns="http://www.w3.org/2000/svg">
  <path d="M7.875 0H6.125V1.75H7.875V0Z" fill="currentColor" />
  <path
    d="M12.5076 2.67008L11.2705 1.43213L10.0326 2.6692L11.2696 3.90715L12.5076 2.67008Z"
    fill="currentColor"
  />
  <path d="M14 6.125H12.25V7.875H14V6.125Z" fill="currentColor" />
  <path
    d="M10.0931 11.392L11.3311 12.6291L12.5681 11.3911L11.3302 10.1541L10.0931 11.392Z"
    fill="currentColor"
  />
  <path d="M7.875 12.25H6.125V14H7.875V12.25Z" fill="currentColor" />
  <path
    d="M1.37035 11.33L2.60742 12.5679L3.84537 11.3309L2.6083 10.0929L1.37035 11.33Z"
    fill="currentColor"
  />
  <path d="M1.75 6.125H0V7.875H1.75V6.125Z" fill="currentColor" />
  <path
    d="M3.90641 2.7303L2.66846 1.49323L1.43138 2.73118L2.66933 3.96825L3.90641 2.7303Z"
    fill="currentColor"
  />
  <path
    d="M7 3.5C5.075 3.5 3.5 5.075 3.5 7C3.5 8.925 5.075 10.5 7 10.5C8.925 10.5 10.5 8.925 10.5 7C10.5 5.075 8.925 3.5 7 3.5Z"
    fill="currentColor"
  />
</svg>
