;<svg
  width="81"
  height="80"
  viewBox="0 0 81 80"
  fill="none"
  xmlns="http://www.w3.org/2000/svg">
  <path
    d="M16.5184 46.3077C16.5449 46.2921 16.6342 46.3799 16.7189 46.5042C16.8037 46.6286 16.8478 46.7464 16.8192 46.764C16.7906 46.7815 16.7054 46.6943 16.6186 46.5674C16.5319 46.4406 16.4918 46.3252 16.5184 46.3077Z"
    fill="#56606D"
  />
  <path
    d="M15.5837 44.3359C15.7026 44.4782 15.7911 44.6434 15.8435 44.8213C15.9297 44.9848 15.9825 45.1637 15.9989 45.3478C15.88 45.2054 15.7914 45.0403 15.7387 44.8624C15.6506 44.6998 15.5978 44.5204 15.5837 44.3359Z"
    fill="#56606D"
  />
  <path
    d="M15.076 42.2122C15.2169 42.5526 15.2852 42.9188 15.2765 43.2872C15.1895 43.1241 15.1368 42.9449 15.1216 42.7607C15.0701 42.5827 15.0546 42.3962 15.076 42.2122Z"
    fill="#56606D"
  />
  <path
    d="M14.9992 40.0286C15.0514 40.2057 15.0684 40.3914 15.0493 40.5751C15.0653 40.7599 15.0429 40.9459 14.9836 41.1216C14.9308 40.9439 14.9138 40.7575 14.9335 40.5731C14.9169 40.389 14.9393 40.2034 14.9992 40.0286Z"
    fill="#56606D"
  />
  <path
    d="M15.3509 37.8735C15.3688 38.0578 15.3488 38.2438 15.2922 38.4201C15.2704 38.6038 15.2125 38.7813 15.1217 38.9425C15.104 38.7583 15.124 38.5723 15.1804 38.396C15.2028 38.2124 15.2607 38.035 15.3509 37.8735Z"
    fill="#56606D"
  />
  <path
    d="M16.1382 35.8367C16.1177 36.0208 16.0589 36.1986 15.9657 36.3587C15.9061 36.534 15.8125 36.6959 15.6904 36.835C15.7121 36.6512 15.7708 36.4736 15.8629 36.3131C15.9873 36.0328 16.1096 35.8212 16.1382 35.8367Z"
    fill="#56606D"
  />
  <path
    d="M17.3421 34.0141C17.2819 34.1889 17.1867 34.3496 17.0623 34.4864C16.9646 34.6431 16.8395 34.7809 16.6928 34.8931C16.6627 34.8735 16.7931 34.6634 16.9706 34.4187C17.1481 34.174 17.3186 33.995 17.3421 34.0141Z"
    fill="#56606D"
  />
  <path
    d="M18.8116 32.3961C18.8332 32.4182 18.6828 32.6127 18.4747 32.8313C18.2666 33.0499 18.0791 33.2094 18.0575 33.1873C18.0359 33.1653 18.1839 32.9707 18.394 32.7521C18.604 32.5335 18.7896 32.3725 18.8116 32.3961Z"
    fill="#56606D"
  />
  <path
    d="M20.3498 30.8401C20.3718 30.8622 20.2189 31.0542 20.0068 31.2683C19.7947 31.4824 19.6057 31.6399 19.5826 31.6193C19.5595 31.5987 19.714 31.4052 19.9261 31.1906C20.1382 30.976 20.3277 30.8185 20.3498 30.8401Z"
    fill="#56606D"
  />
  <path
    d="M21.7872 29.1926C21.8137 29.2122 21.6779 29.4178 21.4863 29.6514C21.2948 29.8851 21.1193 30.0601 21.0952 30.0385C21.1637 29.8662 21.2671 29.71 21.3991 29.5797C21.5861 29.3481 21.7631 29.1751 21.7872 29.1926Z"
    fill="#56606D"
  />
  <path
    d="M22.902 27.3171C22.8827 27.5027 22.8198 27.681 22.7185 27.8376C22.5786 28.1084 22.4277 28.3054 22.4016 28.2889C22.5227 27.9435 22.6915 27.6168 22.903 27.3181L22.902 27.3171Z"
    fill="#56606D"
  />
  <path
    d="M23.4329 25.2063C23.479 25.5751 23.4168 25.9493 23.2539 26.2833C23.2427 26.1002 23.2612 25.9165 23.3086 25.7393C23.3217 25.5562 23.3637 25.3763 23.4329 25.2063Z"
    fill="#56606D"
  />
  <path
    d="M23.2715 23.0337C23.3684 23.193 23.4239 23.374 23.433 23.5602C23.4799 23.7408 23.4822 23.9301 23.4395 24.1117C23.3705 23.9409 23.3305 23.7597 23.3212 23.5757C23.2754 23.3989 23.2587 23.2159 23.2715 23.0337Z"
    fill="#56606D"
  />
  <path
    d="M22.4136 21.034C22.4401 21.017 22.5991 21.207 22.744 21.4758C22.8477 21.6312 22.9114 21.8098 22.9295 21.9957C22.8989 22.0088 22.7851 21.7922 22.6432 21.5304C22.5417 21.3777 22.4642 21.2103 22.4136 21.034Z"
    fill="#56606D"
  />
  <path
    d="M20.8901 19.4824C21.0692 19.5362 21.2316 19.6347 21.362 19.7687C21.5981 19.9653 21.7511 20.1623 21.7275 20.1814C21.7039 20.2004 21.5174 20.046 21.2878 19.856C21.0581 19.6659 20.8701 19.509 20.8901 19.4824Z"
    fill="#56606D"
  />
  <path
    d="M18.9036 18.5949C19.0904 18.5829 19.2773 18.6173 19.4476 18.6951C19.6295 18.7375 19.7979 18.8247 19.9375 18.9488C19.7553 18.9275 19.5775 18.8779 19.4105 18.8019C19.2307 18.7631 19.0591 18.693 18.9036 18.5949Z"
    fill="#56606D"
  />
  <path
    d="M16.7305 18.4964C16.8977 18.4131 17.0834 18.3741 17.27 18.3831C17.4557 18.3554 17.6453 18.3749 17.8215 18.4397C17.461 18.4963 17.0955 18.5153 16.731 18.4964H16.7305Z"
    fill="#56606D"
  />
  <path
    d="M14.7152 19.3006C14.6977 19.2766 14.8857 19.1106 15.155 18.9662C15.3103 18.8615 15.4902 18.7989 15.6769 18.7847C15.536 18.9014 15.3783 18.9964 15.2091 19.0665C15.0568 19.1682 14.8904 19.2471 14.7152 19.3006Z"
    fill="#56606D"
  />
  <path
    d="M13.2139 20.8724C13.2616 20.6915 13.354 20.5254 13.4826 20.3895C13.6706 20.1473 13.8627 19.9884 13.8838 20.0094C13.8024 20.1745 13.697 20.3266 13.5709 20.4607C13.3884 20.6934 13.2399 20.8884 13.2139 20.8724Z"
    fill="#56606D"
  />
  <path
    d="M12.4772 22.9135C12.4425 22.7292 12.4569 22.539 12.5189 22.362C12.5454 22.1768 12.6192 22.0015 12.733 21.853C12.727 22.0363 12.6932 22.2175 12.6327 22.3905C12.6081 22.5718 12.5557 22.7482 12.4772 22.9135Z"
    fill="#56606D"
  />
  <path
    d="M12.7376 25.0661C12.5406 24.7496 12.4503 24.3782 12.4799 24.0066C12.5577 24.1726 12.6099 24.3494 12.6348 24.5311C12.6952 24.7034 12.7298 24.8837 12.7376 25.0661Z"
    fill="#56606D"
  />
  <path
    d="M13.8462 26.9367C13.8222 26.9563 13.6427 26.7863 13.4637 26.5391C13.3393 26.3997 13.252 26.2312 13.21 26.0492C13.2385 26.0337 13.3829 26.2307 13.5579 26.4729C13.678 26.6112 13.7753 26.7678 13.8462 26.9367Z"
    fill="#56606D"
  />
  <path
    d="M15.4542 28.4125C15.2777 28.3543 15.117 28.2564 14.9844 28.1262C14.7487 27.9362 14.5833 27.7481 14.6043 27.7251C14.6254 27.702 14.8209 27.8474 15.0556 28.0379C15.2903 28.2285 15.4743 28.3864 15.4542 28.4125Z"
    fill="#56606D"
  />
  <path
    d="M17.3486 29.4984C17.1657 29.4689 16.9909 29.402 16.8351 29.3018C16.5644 29.1644 16.3588 29.0311 16.3738 29.001C16.5561 29.0327 16.7304 29.0994 16.8873 29.1975C17.0598 29.2656 17.2167 29.3679 17.3486 29.4984Z"
    fill="#56606D"
  />
  <path
    d="M19.4299 30.1607C19.0584 30.1661 18.6924 30.0718 18.3699 29.8875C18.735 29.9242 19.0924 30.0164 19.4299 30.1607Z"
    fill="#56606D"
  />
  <path
    d="M21.6062 30.272C21.4347 30.3448 21.248 30.3748 21.0622 30.3592C20.8768 30.381 20.6888 30.3587 20.5137 30.294C20.6917 30.2463 20.8765 30.2293 21.0602 30.2439C21.2425 30.2227 21.4271 30.2322 21.6062 30.272Z"
    fill="#56606D"
  />
  <path
    d="M23.7093 29.7104C23.5711 29.8361 23.4038 29.9254 23.2225 29.9702C23.0533 30.0505 22.867 30.0881 22.6799 30.0795C22.834 29.9802 23.0034 29.907 23.1813 29.8629C23.3472 29.7818 23.5258 29.7302 23.7093 29.7104Z"
    fill="#56606D"
  />
  <path
    d="M25.5309 28.5151C25.553 28.5367 25.387 28.7222 25.1438 28.9082C25.0077 29.0359 24.8428 29.1288 24.663 29.179C24.6454 29.1529 24.8355 29 25.0742 28.8165C25.2098 28.6929 25.3639 28.5912 25.5309 28.5151Z"
    fill="#56606D"
  />
  <path
    d="M26.9549 26.8629C26.9048 27.0429 26.8127 27.2084 26.6862 27.3458C26.5027 27.5905 26.3212 27.759 26.2971 27.7369C26.273 27.7148 26.4154 27.5158 26.5944 27.2756C26.7734 27.0354 26.9289 26.8454 26.9549 26.8629Z"
    fill="#56606D"
  />
  <path
    d="M27.9013 24.8958C27.9001 25.0826 27.8535 25.2664 27.7655 25.4313C27.7122 25.6097 27.6187 25.7735 27.4922 25.9101C27.5187 25.728 27.5755 25.5515 27.6602 25.3881C27.7131 25.2119 27.7946 25.0456 27.9013 24.8958Z"
    fill="#56606D"
  />
  <path
    d="M28.3246 22.7549C28.3714 23.1224 28.3195 23.4957 28.1742 23.8364C28.169 23.4704 28.2197 23.1056 28.3246 22.7549Z"
    fill="#56606D"
  />
  <path
    d="M28.2682 20.5728C28.3386 20.7437 28.3728 20.9274 28.3684 21.1123C28.4028 21.2943 28.3975 21.4815 28.3529 21.6613C28.2837 21.4898 28.2496 21.3062 28.2526 21.1213C28.2215 20.9392 28.2268 20.7528 28.2682 20.5728Z"
    fill="#56606D"
  />
  <path
    d="M27.7934 18.4399C27.8943 18.5959 27.9626 18.7708 27.9939 18.9539C28.0597 19.1267 28.0894 19.3112 28.0812 19.4959C27.9802 19.34 27.9119 19.1651 27.8806 18.982C27.8147 18.8092 27.785 18.6247 27.7934 18.4399Z"
    fill="#56606D"
  />
  <path
    d="M26.9565 16.4202C26.9851 16.4052 27.116 16.6147 27.2474 16.888C27.3394 17.0494 27.3966 17.2282 27.4153 17.413C27.2937 17.2738 27.2008 17.1119 27.1421 16.9366C27.0477 16.778 26.9847 16.6027 26.9565 16.4202Z"
    fill="#56606D"
  />
  <path
    d="M25.8813 14.5167C25.9079 14.5012 26.0538 14.6982 26.2073 14.9605C26.3172 15.1099 26.3945 15.2807 26.4344 15.4619C26.2979 15.3367 26.1873 15.1859 26.109 15.0181C26.0018 14.8671 25.9245 14.6969 25.8813 14.5167Z"
    fill="#56606D"
  />
  <path
    d="M24.7991 12.6173C24.8277 12.6017 24.967 12.8053 25.1135 13.0686C25.2193 13.2201 25.2922 13.3921 25.3276 13.5735C25.1934 13.4458 25.0864 13.2923 25.0132 13.1222C24.9078 12.9705 24.8349 12.7986 24.7991 12.6173Z"
    fill="#56606D"
  />
  <path
    d="M23.9431 10.6067C24.1403 10.9175 24.2706 11.2661 24.3257 11.6301C24.1285 11.3192 23.9982 10.9707 23.9431 10.6067Z"
    fill="#56606D"
  />
  <path
    d="M23.5723 8.45825C23.6362 8.63113 23.6688 8.81399 23.6686 8.99828C23.7051 9.17882 23.7117 9.36413 23.6881 9.54682C23.6019 9.3813 23.5569 9.19744 23.5568 9.01081C23.5188 8.82793 23.5241 8.6387 23.5723 8.45825Z"
    fill="#56606D"
  />
  <path
    d="M23.7532 6.28369C23.772 6.46679 23.7586 6.65174 23.7136 6.83023C23.7046 7.01406 23.6647 7.19508 23.5958 7.36574C23.5515 6.99748 23.6058 6.62405 23.7532 6.28369Z"
    fill="#56606D"
  />
  <path
    d="M24.4647 4.22046C24.437 4.40279 24.3778 4.57891 24.2897 4.74092C24.2357 4.91699 24.1523 5.08264 24.043 5.2308C24.0484 5.04439 24.097 4.86178 24.1849 4.6973C24.2389 4.51839 24.3349 4.35493 24.4647 4.22046Z"
    fill="#56606D"
  />
  <path
    d="M25.6826 2.41131C25.7066 2.43337 25.5627 2.62942 25.3792 2.86809C25.1957 3.10676 25.0402 3.29429 25.0137 3.27674C25.0669 3.09778 25.1614 2.93378 25.2894 2.79789C25.475 2.55722 25.661 2.39125 25.6826 2.41131Z"
    fill="#56606D"
  />
  <path
    d="M27.3244 0.973145C27.3419 0.999719 27.1539 1.15465 26.9157 1.33817C26.6776 1.52169 26.481 1.66409 26.459 1.63902C26.4369 1.61395 26.6059 1.43143 26.846 1.24541C26.9822 1.11876 27.146 1.02554 27.3244 0.973145Z"
    fill="#56606D"
  />
  <path
    d="M9.91047 56.1875C9.40906 45.3621 24.6795 31.7773 37.8255 34.0287C51.7145 36.4089 63.8923 66.4955 50.7318 76.6265C37.5713 86.7575 10.4144 67.1664 9.91047 56.1875Z"
    fill="#DBF5E7"
  />
  <path
    d="M61.0166 43.527C59.7601 44.8442 67.924 56.4634 70.927 56.8736C73.9299 57.2837 73.6742 50.0499 71.6826 46.737C69.691 43.4242 62.6412 41.8212 61.0166 43.527Z"
    fill="#12CA9E"
  />
  <path
    d="M67.2275 19.6886C64.8297 18.3975 62.1552 20.8875 60.5873 22.3632C56.9907 25.8675 53.9471 29.9254 50.5345 33.6143C46.7534 37.6727 43.249 41.7301 39.3751 45.6983C37.1619 47.912 34.7622 50.3112 33.2885 53.0765C29.9687 49.8484 27.1097 46.3441 23.4208 43.4851C20.7458 41.4564 16.3193 39.9807 16.4116 44.8684C16.5961 51.2323 22.2219 58.0555 26.3721 62.3912C28.1245 64.2359 30.43 66.1729 33.1045 66.2651C36.3321 66.4496 39.6529 62.5757 41.5894 60.4548C45.0015 56.7659 47.7683 52.6157 50.9041 48.8346C54.962 43.8541 59.1121 38.9664 63.0778 33.8926C65.5678 30.7553 73.4063 23.009 67.2275 19.6886ZM20.472 44.4969C20.3428 44.4928 20.215 44.5248 20.103 44.5892C19.7512 44.5073 19.4107 44.3834 19.0886 44.2201C19.3637 44.0359 19.8248 44.1282 20.472 44.4969Z"
    fill="#12CA9E"
  />
  <path
    d="M57.3764 0L58.5597 3.64124H62.3884L59.2902 5.89157L60.4736 9.5328L57.3764 7.28248L54.2791 9.5328L55.462 5.89157L52.3643 3.64124H56.193L57.3764 0Z"
    fill="#12CA9E"
  />
  <path
    d="M78.1116 25.4778L78.7524 27.4498H80.8268L79.1485 28.6688L79.7899 30.6413L78.1116 29.4224L76.4334 30.6413L77.0747 28.6688L75.3965 27.4498H77.4708L78.1116 25.4778Z"
    fill="#F3B410"
  />
  <path
    d="M42.9791 12.7424L43.6199 14.7145H45.6942L44.016 15.9334L44.6573 17.906L42.9791 16.687L41.3008 17.906L41.9421 15.9334L40.2639 14.7145H42.3383L42.9791 12.7424Z"
    fill="#12CA9E"
  />
  <path
    d="M10.9207 7.47241L11.5615 9.44446H13.6358L11.9576 10.6634L12.5989 12.6359L10.9207 11.417L9.24248 12.6359L9.88379 10.6634L8.20557 9.44446H10.2799L10.9207 7.47241Z"
    fill="#F3B410"
  />
  <path
    d="M4.55332 33.3823L5.44081 36.1135H8.31238L5.98884 37.8013L6.87635 40.5324L4.55332 38.8447L2.22827 40.5324L3.11577 37.8013L0.792236 36.1135H3.66381L4.55332 33.3823Z"
    fill="#12CA9E"
  />
</svg>
