<svg width="18" height="18" viewBox="0 0 18 18" fill="none" xmlns="http://www.w3.org/2000/svg">
<path d="M8.16675 4.83335H9.83342V6.50002H8.16675V4.83335ZM8.16675 8.16669H9.83342V13.1667H8.16675V8.16669ZM9.00008 0.666687C4.40008 0.666687 0.666748 4.40002 0.666748 9.00002C0.666748 13.6 4.40008 17.3334 9.00008 17.3334C13.6001 17.3334 17.3334 13.6 17.3334 9.00002C17.3334 4.40002 13.6001 0.666687 9.00008 0.666687ZM9.00008 15.6667C5.32508 15.6667 2.33341 12.675 2.33341 9.00002C2.33341 5.32502 5.32508 2.33335 9.00008 2.33335C12.6751 2.33335 15.6667 5.32502 15.6667 9.00002C15.6667 12.675 12.6751 15.6667 9.00008 15.6667Z" fill="#FF3B30"/>
</svg>
