<svg width="9" height="10" viewBox="0 0 9 10" fill="none" xmlns="http://www.w3.org/2000/svg">
<path d="M9 4.67322C9 7.22534 6.98511 9.29322 4.5 9.29322C2.01489 9.29322 0 7.22534 0 4.67322C0 2.12259 2.01489 0.0532227 4.5 0.0532227C6.98511 0.0532227 9 2.12259 9 4.67322ZM4.5 5.60467C4.03902 5.60467 3.66532 5.98834 3.66532 6.46161C3.66532 6.93488 4.03902 7.31854 4.5 7.31854C4.96098 7.31854 5.33468 6.93488 5.33468 6.46161C5.33468 5.98834 4.96098 5.60467 4.5 5.60467ZM3.70755 2.52444L3.84215 5.05799C3.84844 5.17654 3.94392 5.26935 4.05956 5.26935H4.94044C5.05608 5.26935 5.15156 5.17654 5.15785 5.05799L5.29245 2.52444C5.29926 2.39638 5.19995 2.28871 5.07504 2.28871H3.92494C3.80003 2.28871 3.70074 2.39638 3.70755 2.52444Z" fill="white"/>
</svg>
