<svg width="21" height="15" viewBox="0 0 21 15" fill="none" xmlns="http://www.w3.org/2000/svg">
<path d="M6.34263 13.125C5.46115 13.125 4.57967 12.4688 4.13893 12.1875C1.93523 10.875 1.27411 10.4062 0.833374 10.125V14.0625C0.833374 14.5802 1.3268 15 1.93523 15H10.75C11.3585 15 11.8519 14.5802 11.8519 14.0625V10.125C11.4112 10.4062 10.75 10.875 8.54634 12.1875C8.1056 12.4688 7.22412 13.125 6.34263 13.125ZM10.75 7.5H1.93523C1.3268 7.5 0.833374 7.91982 0.833374 8.4375V8.90625C1.71486 9.46875 1.60467 9.46875 4.80004 11.4375C5.1306 11.625 5.79171 12.1875 6.34263 12.1875C6.89356 12.1875 7.55467 11.625 7.88523 11.5312C11.0806 9.5625 10.9704 9.5625 11.8519 9V8.4375C11.8519 7.91982 11.3585 7.5 10.75 7.5ZM19.5649 4.6875H8.54634C7.93791 4.6875 7.44449 5.10732 7.44449 5.625V6.5625H10.75C11.8936 6.5625 12.8363 7.30723 12.9438 8.25645L12.9537 8.25V12.1875H19.5649C20.1733 12.1875 20.6667 11.7677 20.6667 11.25V5.625C20.6667 5.10732 20.1733 4.6875 19.5649 4.6875ZM18.463 8.4375H16.2593V6.5625H18.463V8.4375ZM6.34263 5.625C6.34263 4.59111 7.3312 3.75 8.54634 3.75H16.2593V0.9375C16.2593 0.419824 15.7659 0 15.1574 0H4.13893C3.5305 0 3.03708 0.419824 3.03708 0.9375V6.5625H6.34263V5.625Z" fill="white"/>
</svg>
