;<svg
  width="19"
  height="19"
  viewBox="0 0 19 19"
  fill="none"
  xmlns="http://www.w3.org/2000/svg">
  <path
    d="M9.5 0C4.25202 0 0 4.25202 0 9.5C0 14.748 4.25202 19 9.5 19C14.748 19 19 14.748 19 9.5C19 4.25202 14.748 0 9.5 0ZM14.1657 6.50827L12.6067 13.8554C12.4917 14.3764 12.1815 14.5028 11.7486 14.2577L9.37359 12.5071L8.22823 13.6103C8.10182 13.7367 7.99456 13.844 7.7494 13.844L7.91794 11.4268L12.3194 7.4506C12.5109 7.28206 12.2772 7.18629 12.0244 7.35484L6.58488 10.7794L4.24052 10.0478C3.73105 9.8869 3.71956 9.53831 4.34778 9.29315L13.5069 5.76129C13.9321 5.60806 14.3036 5.86472 14.1657 6.50827Z"
    fill="white"
  />
</svg>
