;<svg
  width="17"
  height="15"
  viewBox="0 0 17 15"
  fill="none"
  xmlns="http://www.w3.org/2000/svg">
  <path
    d="M8.16667 7.5C10.7443 7.5 12.8333 5.82129 12.8333 3.75C12.8333 1.67871 10.7443 0 8.16667 0C5.58906 0 3.5 1.67871 3.5 3.75C3.5 5.82129 5.58906 7.5 8.16667 7.5ZM11.4333 8.4375H10.8245C10.0151 8.73633 9.11458 8.90625 8.16667 8.90625C7.21875 8.90625 6.32188 8.73633 5.50885 8.4375H4.9C2.19479 8.4375 0 10.2012 0 12.375V13.5938C0 14.3701 0.783854 15 1.75 15H14.5833C15.5495 15 16.3333 14.3701 16.3333 13.5938V12.375C16.3333 10.2012 14.1385 8.4375 11.4333 8.4375Z"
    fill="white"
  />
</svg>
